{
    "asset" : {
        "generator" : "Khronos glTF Blender I/O v1.0.5",
        "version" : "2.0"
    },
    "scene" : 0,
    "scenes" : [
        {
            "name" : "Scene",
            "nodes" : [
                0
            ]
        }
    ],
    "nodes" : [
        {
            "mesh" : 0,
            "name" : "Head_male",
            "translation" : [
                -0.10000000149011612,
                0,
                0.10000000149011612
            ]
        }
    ],
    "meshes" : [
        {
            "name" : "Head_male",
            "primitives" : [
                {
                    "attributes" : {
                        "POSITION" : 0,
                        "NORMAL" : 1,
                        "TEXCOORD_0" : 2,
                        "TEXCOORD_1" : 3,
                        "TEXCOORD_2" : 4
                    },
                    "indices" : 5
                }
            ]
        }
    ],
    "accessors" : [
        {
            "bufferView" : 0,
            "componentType" : 5126,
            "count" : 3660,
            "max" : [
                0.1560363918542862,
                0.29068854451179504,
                0.13682635128498077
            ],
            "min" : [
                -0.15603627264499664,
                -0.09908030927181244,
                -0.118789441883564
            ],
            "type" : "VEC3"
        },
        {
            "bufferView" : 1,
            "componentType" : 5126,
            "count" : 3660,
            "type" : "VEC3"
        },
        {
            "bufferView" : 2,
            "componentType" : 5126,
            "count" : 3660,
            "type" : "VEC2"
        },
        {
            "bufferView" : 3,
            "componentType" : 5126,
            "count" : 3660,
            "type" : "VEC2"
        },
        {
            "bufferView" : 4,
            "componentType" : 5126,
            "count" : 3660,
            "type" : "VEC2"
        },
        {
            "bufferView" : 5,
            "componentType" : 5123,
            "count" : 5514,
            "type" : "SCALAR"
        }
    ],
    "bufferViews" : [
        {
            "buffer" : 0,
            "byteLength" : 43920,
            "byteOffset" : 0
        },
        {
            "buffer" : 0,
            "byteLength" : 43920,
            "byteOffset" : 43920
        },
        {
            "buffer" : 0,
            "byteLength" : 29280,
            "byteOffset" : 87840
        },
        {
            "buffer" : 0,
            "byteLength" : 29280,
            "byteOffset" : 117120
        },
        {
            "buffer" : 0,
            "byteLength" : 29280,
            "byteOffset" : 146400
        },
        {
            "buffer" : 0,
            "byteLength" : 11028,
            "byteOffset" : 175680
        }
    ],
    "buffers" : [
        {
            "byteLength" : 186708,
            "uri" : "data:application/octet-stream;base64,"
        }
    ]
}
